<svg xmlns="http://www.w3.org/2000/svg" width="20.425" height="20.425" viewBox="0 0 20.425 20.425">
  <g id="Icon_ionic-ios-add-circle-outline" data-name="Icon ionic-ios-add-circle-outline" transform="translate(-3.375 -3.375)">
    <path id="Path_3" data-name="Path 3" d="M20.184,14.955H16.526V11.3a.786.786,0,0,0-1.571,0v3.658H11.3a.752.752,0,0,0-.786.786.76.76,0,0,0,.786.786h3.658v3.658a.761.761,0,0,0,.786.786.782.782,0,0,0,.786-.786V16.526h3.658a.786.786,0,1,0,0-1.571Z" transform="translate(-2.153 -2.153)" fill="#fff"/>
    <path id="Path_4" data-name="Path 4" d="M13.588,4.75a8.834,8.834,0,1,1-6.25,2.588,8.779,8.779,0,0,1,6.25-2.588m0-1.375A10.213,10.213,0,1,0,23.8,13.588,10.211,10.211,0,0,0,13.588,3.375Z" transform="translate(0 0)" fill="#fff"/>
  </g>
</svg>
